<?xml version="1.0" encoding="UTF-8" standalone="no"?>
<svg
   width="906.8974"
   height="999.58826"
   version="1.1"
   id="svg103"
   sodipodi:docname="dep_france.svg"
   inkscape:version="1.2.1 (9c6d41e410, 2022-07-14)"
   xmlns:inkscape="http://www.inkscape.org/namespaces/inkscape"
   xmlns:sodipodi="http://sodipodi.sourceforge.net/DTD/sodipodi-0.dtd"
   xmlns="http://www.w3.org/2000/svg"
   xmlns:svg="http://www.w3.org/2000/svg">
  <defs
     id="defs107" />
  <sodipodi:namedview
     id="namedview105"
     pagecolor="#505050"
     bordercolor="#eeeeee"
     borderopacity="1"
     inkscape:showpageshadow="0"
     inkscape:pageopacity="0"
     inkscape:pagecheckerboard="0"
     inkscape:deskcolor="#505050"
     showgrid="false"
     inkscape:zoom="1.172383"
     inkscape:cx="730.98976"
     inkscape:cy="279.77204"
     inkscape:window-width="1920"
     inkscape:window-height="1009"
     inkscape:window-x="-8"
     inkscape:window-y="-8"
     inkscape:window-maximized="1"
     inkscape:current-layer="g101" />
  <g
     fill="#88aadd"
     stroke="#ffffff"
     stroke-width="0.5"
     id="g101"
     transform="translate(-0.67769515,0.33826251)">
    <path
       id="dep_2a"
       d="m 808,896 v 3 l 3,3 6,4 1,3 -4,1 -5,1 v 2 l 2,2 v 8 l 8,2 3,1 2,4 -2,2 -2,1 -3,4 -2,3 1,6 h 6 l 1,1 5,-2 2,1 -3,6 3,2 -5,3 -2,7 8,2 11,1 -5,5 c 0,0 -2,-1 -3,-1 v 1 c 0,2 -3,6 -3,7 l 4,3 6,4 12,4 4,1 3,2 -2,3 h 6 l 1,3 h 5 l 2,-7 -4,-1 5,-5 -1,-2 v -3 l 7,-4 v -4 h -4 l -3,2 v -4 h 5 l 2,-4 2,-13 -1,-5 v -5 l -7,4 h -7 l -1,-5 1,-1 -2,-2 -1,-9 -1,-2 h -4 l -2,-1 v -6 l -2,-2 -2,-1 -4,-5 v -3 h -5 l -2,-5 h -6 l -4,-4 1,-2 -2,-1 h -5 l -2,-1 h -8 v -2 h -4 z"
       label="Corse-du-Sud" />
    <path
       id="dep_2b"
       d="m 868,823 -5,4 v 4 l 3,3 -3,3 1,3 -2,2 v 3 l 4,4 v 5 l -2,4 -3,1 -3,-3 h -5 l -1,-1 h -4 l -4,4 -2,6 -9,2 -7,6 -2,4 -3,-1 -2,-2 -1,6 -3,1 v 6 l 1,3 -4,3 -1,3 h 4 v 2 h 7 l 2,1 h 6 l 2,1 -1,2 4,4 h 6 l 2,5 h 5 v 3 l 3,5 3,1 2,2 v 6 l 2,2 h 4 l 1,1 1,9 2,2 -1,1 1,5 h 7 l 7,-4 -1,-11 9,-12 v -20 l -4,-7 -1,-22 -2,-4 -5,-4 -1,-13 2,-6 -2,-10 -2,-8 -2,-2 z" />
    <path
       id="dep_13"
       d="m 687,750 -10,5 -3,20 -11,-2 -3,8 3,4 -12,7 -3,8 h 11 l 15,1 3,3 h -5 l -4,6 16,3 12,-2 -7,-6 5,-4 7,3 3,7 20,1 6,-3 1,4 -6,5 h 8 l -1,4 -2,2 h 17 l 9,3 1,1 v -7 l 3,-3 3,-2 v -2 l -3,-2 h -3 l -2,-2 3,-3 v -1 l -3,-1 v -3 h 7 l 2,-1 -6,-6 v -7 l -4,-3 3,-7 8,-5 -6,-4 -4,3 -10,3 -7,-1 -15,-6 h -8 l -7,-3 -3,-4 -5,-6 -13,-5 h -1 z"
       label="Bouches-du-Rhône"
       city="Marseille" />
    <path
       id="dep_84"
       d="m 700,697 h -5 l -4,6 1,7 6,1 -1,2 -5,1 -5,5 -1,-2 1,-7 -2,-2 -10,1 -2,4 1,1 6,10 v 8 l 11,11 v 4 l -4,3 13,5 5,6 3,4 7,3 h 9 l 14,6 8,1 9,-3 4,-3 1,-2 -7,-9 h -9 v -3 l 3,-3 v -4 l -6,-3 -1,-5 4,-2 v -4 l -4,-1 -1,-5 h -3 l -6,-5 -1,-4 -10,-1 -7,-1 -1,-4 2,-5 -4,4 -8,-1 -1,-3 5,-6 z"
       label="Vaucluse"
       city="Avignon" />
    <path
       id="dep_83"
       d="m 831,756 h -6 l -2,2 h -10 l -9,6 -6,-4 -9,3 -1,4 -7,5 -12,-8 -9,3 -1,2 7,4 -8,6 -4,6 4,3 v 7 l 6,6 -2,1 h -7 v 3 l 4,1 v 1 l -3,3 1,2 h 3 l 3,2 v 2 l -3,2 -3,3 v 7 l 1,2 6,2 2,8 4,1 4,-3 6,-4 11,1 v 3 l -4,2 h 9 l -2,-2 -1,-5 5,-3 5,2 h 2 l 2,3 3,-2 v -5 l 3,-2 h 8 l 2,-4 5,2 6,-3 v -9 h -8 l 6,-3 3,-4 1,-6 10,-1 6,-7 -4,-4 v -2 l -2,-2 2,-2 v -4 l -5,-2 h -2 l -4,-3 v -8 l -5,-1 -4,-1 -1,-4 z"
       label="Var"
       city="Toulon" />
    <path
       id="dep_04"
       d="m 842,665 -4,6 -5,4 -2,3 -5,1 v 3 l -2,2 -2,5 h -11 l -6,-3 -4,3 -6,-1 -2,3 h 2 v 6 h -1 l -6,-3 v -3 l -4,-3 h -2 v 4 h -3 l -6,4 -4,6 -1,4 h 2 l 1,5 h -2 l -4,-3 -2,1 1,2 5,7 -3,1 -3,-2 h -6 l -6,6 v 2 l -2,-3 -3,-2 -2,5 -3,3 h -2 l 1,5 4,1 v 4 l -4,2 1,5 6,3 v 4 l -3,3 v 3 h 8 l 8,9 9,-3 12,8 7,-5 1,-4 10,-3 5,4 9,-6 h 10 l 2,-2 h 6 l -2,-4 2,-2 v -2 h 5 l 1,-2 5,-3 4,3 2,-2 -6,-5 -6,-6 -3,-1 v -5 l -4,-6 2,-8 1,-5 4,-3 v -4 l 5,-3 h 1 v -7 l 5,-1 -3,-3 -3,-1 -2,-4 1,-4 7,-7 -1,-5 h 1 z"
       label="Alpes-de-Haute-Provence"
       city="Digne-les-Bains" />
    <path
       id="dep_06"
       d="m 842,698 h -1 l -5,3 v 4 l -4,3 -1,5 -2,8 4,6 v 5 l 3,1 6,6 6,5 -2,2 -4,-3 -5,3 -1,2 h -5 v 2 l -2,2 2,4 -4,2 1,4 h 4 l 5,2 v 7 l 4,4 h 2 l 5,2 v 3 l -2,3 2,1 v 3 l 4,4 1,-9 7,2 2,-3 h 4 v -11 l 9,-1 7,-6 h 6 l 1,-4 6,-4 -4,-8 6,-5 -1,-5 8,-3 2,-8 -1,-5 -2,-3 -2,-5 h -5 l -17,6 h -5 l -10,-7 -9,-3 h -5 v -6 z"
       label="Alpes-Maritimes"
       city="Nice" />
    <path
       id="dep_05"
       d="m 811,619 -3,1 -1,6 -6,1 -1,-6 -2,-2 -7,1 -2,2 -2,8 1,2 h 8 l 1,5 3,1 v 8 h -7 l -2,3 -9,-1 -4,4 -4,-2 -4,4 1,3 -2,3 h -10 v 4 l 3,2 -1,2 -6,3 -7,1 -3,6 v 5 l 4,3 -4,5 -5,-3 h -6 v 3 l 3,3 -4,3 1,6 13,3 2,5 h 3 l -1,11 6,-5 h 6 l 3,2 3,-1 -5,-7 -1,-2 2,-1 4,3 h 2 l -1,-5 h -2 l 1,-4 4,-6 6,-4 h 3 v -4 h 2 l 4,3 v 3 l 6,3 h 2 l -1,-6 h -2 l 2,-3 6,1 4,-3 6,3 h 11 l 2,-5 2,-2 v -3 l 5,-1 1,-3 6,-4 4,-6 5,1 3,-4 h 4 v -3 l -5,-3 -1,-10 -4,-1 h -5 l -10,-4 -1,-11 -6,-2 -1,-4 -3,-5 z"
       label="Hautes-Alpes"
       city="Gap" />
    <path
       id="dep_48"
       d="m 578,643 -10,4 -3,6 -7,-4 -5,16 -5,12 7,9 v 7 l 5,4 v 8 l 2,13 6,2 -1,4 9,-1 3,1 -2,2 11,7 10,-2 1,-2 -1,-3 4,-1 6,5 9,1 4,-7 v -5 l 3,-3 -2,-1 v -7 l -6,-6 h 5 l 2,-2 2,-4 -2,-1 1,-7 -6,-7 -3,-13 -9,-12 -7,2 -1,-6 h -4 v 5 l -10,3 z"
       label="Lozère"
       city="Mende" />
    <path
       id="dep_03"
       d="m 542,451 -5,6 h -3 l -3,4 -3,-4 -10,9 v 6 l 2,2 v 2 l -5,4 -5,-1 -9,2 -4,5 -2,4 4,6 v 4 l 3,4 2,-4 3,5 4,2 4,9 v 3 l 6,4 3,-1 2,-6 h 2 v -3 l 4,-1 1,2 5,-5 h 5 l 1,2 -2,3 3,5 1,2 9,5 12,2 h 3 l 5,1 4,-3 3,2 1,4 4,1 h 6 l 1,4 5,2 v -2 h 9 l -1,-21 -2,-5 1,-4 6,-1 8,-6 v -14 l -3,-4 h -5 l -2,-3 h -7 l -1,-2 v -5 l -8,-14 -3,-2 -7,9 -3,1 -1,-5 -3,-2 -2,3 h -5 l -1,-3 -4,2 -3,2 -5,-4 -6,-3 v -5 z"
       label="Allier"
       city="Moulins" />
    <path
       id="dep_30"
       d="m 625,696 -2,4 -2,2 h -5 l 6,6 v 7 l 2,1 -3,3 v 5 l -4,7 -9,-1 -6,-5 -4,1 1,3 -1,3 -10,1 -11,-7 -2,2 v 5 l -4,1 1,4 5,1 h 6 l 1,7 -6,3 v 4 l 5,2 v 2 l 2,2 2,-2 h 3 l 1,3 h 4 l 2,-7 h 3 l 5,-6 h 6 l 1,9 2,3 4,-2 6,3 2,4 11,6 4,10 v 4 l -7,4 -5,4 6,1 v 7 h 8 5 l 3,-8 12,-7 -3,-4 3,-8 11,2 2,-20 15,-8 v -4 l -11,-11 v -8 l -6,-10 -13,-7 -1,5 -5,1 -2,-6 -5,1 -1,7 -4,-1 -8,-6 -4,2 v -10 z"
       label="Gard"
       city="Nîmes" />
    <path
       id="dep_11"
       d="m 492,802 -1,7 -6,-2 h -7 v -3 l -4,1 -7,2 -3,-4 -5,4 2,4 -6,2 -1,6 -5,2 5,5 -1,3 17,8 2,13 v 6 l 1,9 h -9 l -3,4 12,9 7,-3 8,9 -1,1 h 1 l 15,-7 -4,-5 v -6 h 34 l -1,-5 8,-4 10,7 4,2 v -10 -12 l -4,1 -4,-6 3,-5 6,6 6,-4 3,-4 1,-4 h -5 l -1,-5 h -5 l -4,-7 -4,1 -3,-2 -1,-6 -2,1 1,4 h -5 v 6 l -7,3 -3,-7 -5,3 -4,-3 -1,-5 3,-4 -2,-4 h -11 l -11,-2 z"
       label="Aude"
       city="Carcassonne" />
    <path
       id="dep_34"
       d="m 605,747 -5,6 h -3 l -2,7 h -4 l -1,-3 h -3 l -2,2 -2,-2 v -3 l -5,-2 v 2 l -7,1 -3,3 1,6 h -5 l -6,-3 h -3 v 4 l 1,10 h -10 l -2,4 -13,5 -5,-4 -3,5 -2,5 6,5 -2,7 -8,2 2,4 -3,4 1,5 4,3 5,-3 3,7 7,-3 v -6 h 5 l -1,-4 2,-1 1,6 3,2 4,-1 4,7 h 5 l 1,5 h 5 v -2 l 13,-3 1,-4 h 11 l 3,-4 19,-16 12,-8 h 5 l 5,-4 7,-4 v -5 l -4,-9 -11,-6 -2,-5 -6,-3 -4,2 -2,-2 -1,-9 z"
       label="Hérault"
       city="Montpellier" />
    <path
       id="dep_66"
       d="m 540,858 -8,4 1,5 h -34 v 6 l 4,5 -15,7 h -2 -12 l -1,3 -6,2 -4,4 -12,2 1,4 6,5 10,3 v 6 l 6,5 h 5 l 6,-8 7,-1 12,4 10,8 3,-3 h 3 l 2,2 2,-2 1,-5 11,-2 3,-5 6,-2 h 7 l 5,5 6,1 v -6 l -3,-4 -5,-2 -1,-32 -5,-2 z"
       label="Pyrénées-Orientales"
       city="Perpignan" />
    <path
       id="dep_15"
       d="m 513,590 -1,4 2,5 -2,2 h -4 l -4,-4 -3,-2 v 10 l -7,5 -4,6 1,6 -2,3 -2,6 h -2 l -3,4 2,2 1,4 -4,3 1,12 7,5 -5,10 5,2 -2,6 4,1 3,-5 h 5 l 1,1 h 11 l 2,-4 3,-1 1,-8 h 2 v -9 l 11,-9 1,1 1,7 7,-1 1,10 h 4 l 1,11 3,3 5,-11 5,-16 7,4 3,-7 9,-3 v -3 l -2,-3 -4,-2 2,-3 -2,-2 h 2 l 3,-2 -4,-1 -2,-2 -1,-7 -2,-2 -2,-6 h -8 l -2,-5 h -2 l -2,3 -5,-1 -5,-7 -2,-1 -4,-2 -2,3 h -6 l -3,-7 z"
       label="Cantal"
       city="Aurillac" />
    <path
       id="dep_43"
       d="m 572,595 -2,2 v 2 h -4 l -4,3 -6,1 -2,2 h 1 l 2,5 h 8 l 2,6 2,2 1,7 1,2 5,1 -3,2 h -2 l 2,2 -2,3 4,2 2,3 v 3 h 1 l 6,17 9,-3 1,-5 h 4 l 1,6 7,-2 8,10 6,-8 9,-7 h 9 l 3,-9 h 5 l 1,-7 h 5 l -1,-2 -1,-5 2,-4 5,-2 2,-8 -5,-6 h -6 l 1,-6 -11,-5 h -4 l -8,6 -8,-2 -1,2 -5,-2 -3,-3 -2,4 -5,-1 -3,-2 -2,5 -4,-2 -2,-4 h -3 l -2,-2 -4,1 h -5 l -2,-1 -2,1 z"
       label="Haute-Loire"
       city="Le Puy-en-Velay" />
    <path
       id="dep_63"
       d="m 538,509 -5,5 v -2 l -5,1 v 3 h -2 l -2,6 -3,1 -5,-4 v 8 l 3,4 1,7 -4,3 -1,5 -4,2 -7,4 1,3 8,9 1,5 -3,5 v 5 l 2,3 1,6 -1,2 11,4 3,6 h 6 l 2,-2 4,1 2,1 5,7 5,1 2,-3 h 1 l 2,-2 6,-1 4,-3 h 4 v -3 l 2,-1 1,2 2,-1 2,1 h 5 l 4,-2 2,3 h 3 l 2,4 4,1 2,-4 3,2 5,1 2,-4 3,3 5,1 1,-1 -2,-1 -1,-4 6,-7 -3,-12 -9,-6 -4,-9 -5,-6 2,-8 3,-3 -6,-5 v -1 l -5,-2 -2,-4 h -5 l -4,-1 -1,-4 -3,-2 -4,2 -5,-1 -4,1 -11,-2 -9,-5 -1,-3 -3,-4 2,-4 -1,-1 z"
       label="Puy-de-Dôme"
       city="Clermont-Ferrand" />
    <path
       id="dep_65"
       d="m 316,784 -3,2 6,10 -3,4 2,4 5,6 -4,5 -5,13 -10,8 2,5 -2,2 -5,-1 -2,12 -3,2 v 7 h 1 l 6,3 7,6 1,4 5,5 h 5 l 12,-5 5,6 7,1 2,-4 4,1 7,1 -1,-19 h 4 l 3,1 2,-2 v -4 l 5,-2 -2,-7 -2,-2 -4,2 2,-4 -1,-4 -6,-4 1,-3 3,-6 4,-1 v -3 l 3,-3 1,-3 -6,-3 h -9 l -1,-3 h -5 l -1,-3 h -5 l -1,1 h -5 v -3 l -4,-2 1,-1 1,-4 -1,-1 -2,-5 -4,-1 -4,-2 v -6 z"
       label="Hautes-Pyrénées"
       city="Tarbes" />
    <path
       id="dep_64"
       d="m 303,785 -5,3 -10,-1 -1,-1 -7,2 -5,1 -4,-3 -5,2 -1,-2 h -5 l -3,2 h -9 l -4,3 h -9 l -1,2 -2,-1 2,-3 -4,-3 -6,5 h -9 l -11,-5 -1,3 -8,10 -7,3 h -4 v 4 l 4,4 h 6 l 1,5 5,1 1,-4 7,3 4,1 1,5 -2,2 v 7 l -5,2 v 3 l 3,4 6,2 1,-6 3,-3 -1,5 3,3 h 6 l 3,4 9,2 8,5 h 14 l 1,7 9,7 4,5 4,-2 3,-1 2,2 3,-2 7,-4 v -7 l 3,-2 2,-12 5,1 2,-2 -2,-5 9,-8 6,-13 4,-5 -5,-6 -2,-4 3,-4 -6,-10 -9,-1 z"
       label="Pyrénées-Atlantiques"
       city="Pau" />
    <path
       id="dep_40"
       d="m 244,684 -12,6 h -3 l -6,34 -8,32 -3,12 -2,9 -6,9 11,5 h 9 l 6,-5 4,4 -2,2 2,1 1,-2 h 9 l 4,-4 9,1 3,-2 h 5 l 1,2 5,-2 3,3 6,-1 7,-2 1,1 10,1 5,-3 -2,-5 2,-7 4,-4 -1,-7 3,-3 -5,-7 4,-4 4,-1 4,2 5,-5 1,6 2,2 4,-1 v -4 l 1,-3 -1,-2 1,-7 4,-4 -2,-3 h -4 l -5,-2 -7,1 -2,-8 -4,-6 h -2 l 1,6 v 2 l -7,1 -6,-3 -2,-8 -4,-5 h -3 l -1,-3 -3,-2 -6,-2 2,-2 v -2 l -2,-2 -3,-1 h -6 l -4,4 h -3 l -4,-3 -6,3 -3,-2 2,-3 1,-5 z"
       label="Landes"
       city="Mont-de-Marsan" />
    <path
       id="dep_33"
       d="m 246,575 -6,9 -2,30 -4,30 -4,24 v 6 l 3,-8 5,-6 7,6 1,2 2,3 -9,1 -2,-3 -3,2 -1,5 -4,6 v 8 h 3 l 11,-6 7,2 -1,4 -2,4 3,1 6,-2 4,3 h 3 l 3,-4 7,-1 2,2 2,2 v 2 l -1,2 6,2 3,2 v 3 h 4 l 4,5 2,8 6,2 h 6 v -2 -6 h 2 l 3,5 6,-1 3,-3 -1,-3 -2,-2 1,-4 h 3 l 4,-2 -2,-4 -1,-4 3,-5 5,-8 4,-4 3,-1 v -4 h -3 l -2,-4 1,-3 5,-1 3,-1 4,-1 -1,-7 4,-2 -5,-3 -4,5 h -11 l -1,-2 -4,-2 3,-3 v -4 l -1,-2 v -1 l 3,-3 1,-5 2,-6 -2,-3 h -4 l -2,-2 -1,4 -4,-2 -5,2 -4,-1 -9,-8 h -5 l -1,-12 -10,-1 v -5 l -2,1 h -10 v 3 l 3,10 v 11 l -1,2 -2,-8 -5,-20 -19,-17 1,-7 -4,-1 z"
       label="Gironde"
       city="Bordeaux" />
    <path
       id="dep_24"
       d="m 373,566 -3,6 h -6 v 9 l -17,12 v 12 l -7,7 -3,3 -7,-1 -4,7 -1,2 1,3 h 4 l 2,3 -2,5 -1,6 -3,2 v 2 l 1,1 v 4 l -2,3 3,2 1,3 11,-1 4,-5 5,3 -4,2 1,7 5,4 1,7 5,2 3,-3 h 8 l 3,-3 h 3 v 3 h 8 l 1,-2 h 3 l 3,3 v 3 l -3,1 1,2 4,1 4,-4 h 4 l 3,3 5,2 1,-1 3,-3 1,-6 h 7 l 6,-8 h -3 v -4 l 6,-1 v -4 l 3,-1 4,-6 -4,-4 v -4 l 3,-2 -3,-5 v -8 h -8 l -3,-2 3,-3 -4,-4 3,-3 -3,-2 v -5 l 7,-6 -4,-3 -2,-6 -8,-1 -2,-2 5,-2 -2,-3 -8,-1 -2,-7 -11,-1 -3,3 -2,1 -3,-4 1,-4 -2,-4 z"
       label="Dordogne"
       city="Périgueux" />
    <path
       id="dep_47"
       d="m 346,664 h -4 l -3,1 -5,1 -1,4 2,3 3,1 v 3 l -3,1 -3,4 -6,8 -2,5 1,5 1,3 -4,2 h -3 l -1,4 3,2 v 3 l -3,3 -5,1 v 1 l 2,8 7,-1 5,2 h 4 l 2,3 -4,4 -1,7 1,2 1,-3 5,4 5,-6 3,4 6,-1 7,-1 2,-5 11,-1 6,5 2,-2 3,-1 -1,-5 5,-1 7,-2 -2,-4 3,-3 1,-6 -4,-5 3,-8 6,3 7,-1 -3,-8 -3,-11 h 7 l 2,-4 -6,-2 -3,-3 h -4 l -4,4 -4,-1 -1,-2 3,-1 v -3 l -3,-3 -3,-1 -2,2 h -7 v -2 h -2 l -4,3 h -8 l -3,3 -5,-2 -1,-7 -5,-4 z"
       label="Lot-et-Garonne"
       city="Agen" />
    <path
       id="dep_46"
       d="m 442,634 -7,4 h -1 l -3,2 v 4 l 4,4 -4,6 -3,1 v 4 l -6,1 v 3 l 3,1 -6,8 h -8 v 6 l -3,3 -2,5 h -7 l 3,11 3,7 4,-1 1,2 -3,3 2,4 h 3 l 3,4 h 3 l 2,-3 1,1 v 3 l 1,4 h 7 l 5,-5 3,-1 1,2 2,4 h 3 l 1,-7 5,1 3,-4 6,1 8,-4 v 1 l 2,-2 -3,-5 -1,-7 4,-3 h 2 l 6,-6 h 3 l 1,-2 h 7 l 2,-2 1,-2 -3,-1 2,-6 -5,-2 5,-10 -6,-5 -2,-13 -6,-2 -4,4 -2,-3 -6,6 h -4 l -8,-10 z"
       label="Lot"
       city="Cahors" />
    <path
       id="dep_09"
       d="m 423,817 -2,2 -1,1 5,4 1,2 -1,2 -8,1 -2,3 v 1 l 3,1 2,2 -2,3 h -2 l -4,-3 -4,-2 -5,1 -7,4 v 7 l 2,1 -1,5 -8,2 -4,4 v 7 l 2,1 -3,3 1,1 11,3 h 5 l 7,7 h 15 l 6,9 6,-2 15,2 1,7 12,-2 4,-4 6,-2 1,-3 14,-1 -8,-9 -7,3 -12,-9 3,-4 h 9 l -1,-9 v -6 l -2,-13 -17,-8 v -3 l -3,-4 -3,1 -4,1 -7,-4 h -2 l 3,4 -1,2 h -6 l -1,-4 -3,-5 z"
       label="Ariège"
       city="Foix" />
    <path
       id="dep_32"
       d="m 369,735 -11,1 -2,5 -7,1 -6,1 -3,-4 -5,6 -5,-4 -2,6 v 4 l -4,1 -2,-2 -1,-6 -5,5 -4,-2 -4,1 -4,4 5,8 -3,2 1,7 -4,4 -2,7 3,5 9,1 3,-2 h 6 v 6 l 4,2 4,1 2,5 1,1 -1,4 -1,1 4,2 v 3 h 5 l 1,-1 h 5 l 1,3 h 5 l 1,3 h 9 l 6,3 1,-1 4,-2 6,-8 12,1 5,3 2,-2 3,-8 3,-7 7,-3 3,-2 -1,-2 -3,-1 -2,-3 h -2 l -4,-4 v -3 l -6,-6 -1,-3 -3,1 -1,-2 2,-3 -3,-3 v -4 l -2,-3 h -7 v -4 l 4,-3 v -4 l 4,-1 -2,-2 -3,2 h -5 l -2,-2 h -1 l -1,2 z" />
    <path
       id="dep_31"
       d="m 438,754 -5,2 -2,3 -2,-2 -4,-1 v 3 l -3,1 4,2 -3,4 -8,2 -3,-4 h -4 l -2,1 h -10 l -1,1 1,3 6,6 v 3 l 4,4 h 2 l 2,3 3,1 1,2 -3,2 -7,3 -3,7 -3,8 -2,2 -5,-3 -12,-1 -7,8 -3,2 -2,4 -3,3 v 3 l -4,1 -3,6 -1,3 6,4 1,4 -2,4 4,-2 2,2 2,7 -5,2 v 4 l -2,2 -3,-2 h -4 l 1,20 14,1 1,-18 5,1 8,4 3,-3 -2,-1 v -7 l 4,-4 8,-2 1,-5 -2,-1 v -7 l 7,-4 5,-1 4,2 4,3 h 2 l 2,-3 -2,-2 -3,-1 v -1 l 2,-3 8,-1 1,-2 -1,-2 -5,-4 1,-1 2,-2 h 3 l 3,5 1,4 h 6 l 1,-3 -3,-3 h 2 l 7,4 4,-1 3,-1 -1,-1 5,-2 1,-5 6,-3 -2,-4 5,-4 3,4 7,-2 h 2 v -7 h -4 l -5,-1 -4,-5 -2,-3 -8,-3 -2,-3 2,-1 v -4 l -2,-2 -4,-6 v -4 l -1,-1 -4,-4 -2,-5 z"
       label="Haute-Garonne"
       city="Toulouse" />
    <path
       id="dep_82"
       d="m 392,703 -3,8 4,5 -1,6 -3,3 2,4 -7,2 -5,1 1,5 -3,1 2,2 h 5 l 3,-2 2,2 -4,1 v 4 l -4,3 v 4 h 7 l 2,3 v 4 l 3,3 -2,3 1,2 4,-2 h 10 l 2,-1 h 4 l 3,4 8,-2 3,-4 -4,-2 3,-1 v -3 l 4,1 2,2 2,-3 5,-2 2,1 2,-3 -3,-3 h 6 l 2,-4 4,-4 h -4 l 2,-5 11,-2 4,-2 5,-2 2,-2 -2,-5 3,-6 h -6 v -8 l -8,3 -5,-1 -4,4 -5,-1 -1,7 h -3 l -1,-4 -1,-2 -3,1 -6,5 h -7 l -1,-4 v -3 -1 l -3,3 h -3 l -3,-4 h -3 l -2,-4 3,-3 v -2 h -5 v 2 l -7,1 z"
       label="Tarn-et-Garonne"
       city="Montauban" />
    <path
       id="dep_12"
       d="m 530,645 -11,9 v 9 h -2 l -1,8 -3,1 -2,4 h -11 l -1,-1 h -5 l -3,5 h -1 l -1,2 -2,2 h -7 l -1,2 h -3 l -6,6 h -2 l -4,3 1,7 3,5 -2,2 v 8 h 5 l -3,6 3,6 3,-2 1,3 4,-4 h 6 l 7,4 10,2 4,7 6,2 3,8 -1,3 4,7 v 3 l 7,9 6,3 4,-1 2,-3 3,1 6,4 h 10 l -1,-11 v -3 h 3 l 6,3 h 5 l -1,-6 3,-3 7,-1 v -5 l 6,-3 -1,-7 h -6 l -5,-1 -1,-4 4,-1 v -5 l 4,-4 -3,-1 -9,1 1,-4 -6,-2 -2,-13 v -8 l -5,-4 1,-7 -11,-13 -1,-10 h -4 l -1,-11 -8,1 v -6 z"
       label="Aveyron"
       city="Rodez" />
    <path
       id="dep_81"
       d="m 485,726 h -6 l -4,4 -1,-3 -3,2 -1,-1 -1,2 -5,2 -5,2 -11,2 -1,5 h 4 l -4,4 -2,4 h -6 l 3,3 -2,3 1,1 1,4 4,5 1,1 1,4 3,5 3,3 v 4 l -3,1 2,3 8,4 2,2 4,5 5,1 h 4 v 7 l 2,-1 v 3 h 7 l 6,2 1,-7 h 3 l 11,2 h 11 l 8,-2 2,-7 -6,-5 2,-5 3,-5 5,4 13,-5 2,-4 -6,-4 -3,-1 -2,3 -4,1 -6,-3 -7,-9 v -4 l -4,-6 1,-3 -3,-7 -6,-3 -4,-7 -10,-2 z"
       label="Tarn"
       city="Albi" />
    <path
       id="dep_01"
       d="m 693,478 h -4 l -2,5 -7,26 -1,3 -1,8 -2,3 v 12 l -1,3 7,4 h 3 l 4,4 1,6 5,-1 7,2 v -1 h 4 l 5,4 4,-2 3,-7 2,-3 3,1 3,2 2,5 14,18 5,-3 v -7 h 5 v -12 l 3,-2 v -11 l 1,1 v -4 l -2,-4 1,-10 4,2 2,-3 3,-1 4,-3 h -4 v -7 l 4,-3 h 7 v -4 l -2,-1 5,-7 -1,-2 -6,-4 -15,17 h -10 v -5 l -6,-2 -7,7 -5,1 v -5 l -5,-2 -7,-10 -7,-3 -2,-5 h -3 l -4,2 -3,1 z"
       label="Ain"
       city="Bourg-en-Bresse" />
    <path
       id="dep_38"
       d="m 720,544 -2,3 -3,7 -4,2 -5,-4 h -4 v 5 l 5,4 -8,10 -10,3 -8,2 5,5 1,3 -8,4 v 11 h -1 l 2,5 7,2 4,-2 5,-3 7,5 h 6 l 3,6 -1,3 v 6 l -1,6 v 1 h 3 l 6,2 9,2 3,-2 2,-3 h 1 v 29 l 2,2 h 5 l 5,3 4,3 h 3 l 2,2 7,1 v -1 l -3,-2 v -4 h 10 l 2,-3 -1,-3 4,-4 4,2 4,-4 9,1 2,-3 h 7 v -8 l -3,-1 -1,-5 h -8 l -1,-2 2,-8 2,-2 -2,-3 -4,-2 -2,2 1,-3 v -3 l -3,-3 1,-8 4,-2 -1,-5 -7,-7 h -3 l -2,3 -5,-7 -2,1 -3,5 2,3 -1,1 -3,-2 -10,-2 -4,-8 v -3 l -4,-5 -1,-2 -14,-18 -2,-5 -3,-2 z"
       label="Isère"
       city="Grenoble" />
    <path
       id="dep_74"
       d="m 809,484 -8,2 -8,6 -2,-3 h -4 l -4,8 1,3 4,4 -8,4 -4,5 h -8 l -4,3 -4,1 -1,3 -4,-2 -1,10 2,4 v 4 l 3,2 v 10 l 7,2 3,5 h 6 l 2,-2 h 3 l 5,6 2,2 6,-1 2,-3 2,-7 3,-2 3,-8 4,-3 2,1 1,2 -2,3 4,4 h 5 l 4,6 -1,2 4,-3 3,-3 2,1 v -7 l 12,-5 2,-3 -1,-8 -8,-8 -3,1 v -9 l -6,-3 -1,-3 4,-4 v -5 l -6,-7 v -5 z"
       label="Haute-Savoie"
       city="Annecy" />
    <path
       id="dep_42"
       d="m 612,506 -6,1 -1,4 2,5 1,21 h -9 v 3 l 6,5 -3,3 -2,8 5,6 4,9 9,6 3,12 -6,7 1,4 10,3 8,-6 h 3 l 12,5 -1,6 h 6 l 5,5 h 3 l 6,-2 2,-7 9,-5 v -11 h 1 l -5,-1 -3,2 -4,-2 4,-5 -1,-4 -12,-2 -10,-9 v -3 l 2,-2 v -3 l -3,-2 3,-3 v -5 l -5,-4 v -5 l -3,-3 v -4 l -2,-5 3,-3 v -7 h 7 l 2,-2 -2,-4 v -4 l -2,-1 -1,7 h -4 l -3,3 -2,-2 -12,-2 -4,3 h -3 l -1,-3 -5,-1 -1,-5 z"
       label="Loire"
       city="Saint-Etienne" />
    <path
       id="dep_69"
       d="m 672,501 h -4 l -3,4 -2,-3 -4,3 -4,-3 h -4 l -1,1 -1,4 2,2 v 3 l 2,4 -1,2 h -8 v 7 l -3,3 2,6 v 3 l 3,3 v 5 l 5,4 v 5 l -3,4 3,1 v 3 l -2,2 v 3 l 10,9 12,2 1,4 -4,4 4,2 3,-1 5,1 7,-4 -1,-3 -5,-5 8,-2 10,-3 8,-10 -5,-4 v -4 l -7,-2 -5,1 -1,-6 -4,-4 h -3 l -7,-4 1,-3 v -12 l 2,-3 1,-8 -1,2 h -3 l -1,-7 z"
       label="Rhône"
       city="Lyon" />
    <path
       id="dep_73"
       d="m 755,535 v 11 l -3,2 v 12 h -5 v 7 l -5,3 1,2 4,5 v 3 l 5,8 9,2 3,2 1,-1 -2,-3 3,-5 2,-1 5,7 2,-3 h 3 l 7,7 1,5 -4,2 -1,8 3,3 v 3 l -1,3 2,-2 4,2 2,3 7,-1 2,2 1,6 6,-1 1,-6 3,-1 h 7 l 11,-4 4,2 h 4 v -4 l 5,-3 2,-2 9,-3 1,-7 -1,-2 5,-9 -5,-2 -2,-5 -9,-6 c 0,0 1,-11 -1,-13 -2,0 -7,1 -7,1 l -5,-7 v -5 l -2,-1 -3,3 -4,3 1,-2 -4,-6 h -5 l -4,-4 2,-3 -1,-2 -3,-1 -3,3 -3,8 -3,2 -2,7 -2,3 -6,1 -2,-2 -5,-6 h -3 l -2,2 h -6 l -3,-5 -7,-2 v -10 z"
       label="Savoie"
       city="Chambéry" />
    <path
       id="dep_07"
       d="m 678,599 -8,5 -2,7 -6,2 h -3 l -2,9 -5,2 -2,4 1,5 1,2 h -6 v 7 h -5 l -3,9 h -9 l -9,7 -6,8 1,2 3,13 6,6 -1,8 8,5 v 10 l 4,-2 8,6 4,1 1,-7 5,-1 2,5 h 5 l 1,-5 12,6 2,-4 5,-1 v -7 l -1,-2 h -2 v -3 l 2,-3 -2,-3 1,-7 4,-5 v -8 l -1,-9 3,-1 1,-4 3,-7 2,-5 -3,-8 -2,-6 -3,-11 v -15 h -1 z"
       label="Ardèche"
       city="Privas" />
    <path
       id="dep_26"
       d="m 696,601 -5,3 -4,2 -5,-2 v 15 l 3,11 2,6 3,8 -2,5 -3,7 -1,4 -4,1 2,9 v 8 l -4,5 -1,7 1,3 -1,3 v 3 h 2 l 1,2 v 7 h 5 l 2,2 -1,7 1,2 5,-5 5,-1 1,-2 -6,-1 -1,-7 4,-6 h 5 l 5,5 -5,6 1,3 8,1 4,-4 -2,5 v 4 l 8,1 10,1 2,4 5,5 h 5 l 3,-3 2,-6 3,3 2,3 1,-14 h -3 l -2,-5 -13,-3 -1,-6 4,-3 -4,-3 1,-3 h 6 l 5,3 4,-5 -4,-3 v -5 l 3,-6 7,-1 6,-3 1,-1 -7,-1 -2,-2 h -3 l -4,-3 -5,-3 h -5 l -2,-2 v -29 h -1 l -2,3 -3,2 -9,-2 -6,-2 -3,1 v -2 l 1,-6 v -5 l 1,-4 -4,-6 h -5 z"
       label="Drôme"
       city="Valence" />
    <path
       id="dep_17"
       d="m 261,492 -5,1 -11,6 3,3 -6,5 -1,3 -5,1 -3,-3 -7,-1 -1,-4 -4,-3 -6,3 3,5 h 5 l 6,4 3,3 8,-1 2,4 4,1 2,5 4,1 -1,4 -4,-1 -1,3 3,4 -2,8 h -4 v 5 l 1,2 h -5 l -1,-3 4,-4 -2,-3 -1,-1 -1,-9 -6,-1 -5,-6 -1,13 8,6 1,7 2,8 v 8 l 5,-1 7,6 5,3 1,4 4,1 11,11 3,13 h 10 l 2,-2 1,5 9,1 1,12 h 6 l 8,9 h 4 l 5,-2 4,2 3,-6 2,-5 -7,-5 -2,-3 -4,-4 -7,1 -3,-1 v -2 l 4,-1 v -1 l -3,-1 -2,-1 5,-4 v -3 l -2,-2 1,-2 1,-4 -3,-3 -2,-3 -4,-5 -3,-1 2,-4 h -1 l -1,-8 -3,-2 4,-2 h 6 l 2,-2 h 4 l 1,2 h 4 l 3,-1 1,-7 3,-11 -3,-3 -1,-4 -5,-3 -7,-4 -8,1 -5,-7 h -7 l -6,-5 v -2 l -4,-5 -1,-5 -5,-4 -7,3 z"
       label="Charente-Maritime"
       city="La Rochelle" />
    <path
       id="dep_19"
       d="m 476,561 -1,3 -6,2 -3,4 h -2 l -4,-1 -3,4 -4,1 -3,5 h -4 l -2,2 h -7 l -3,4 -2,-1 -5,6 -5,-2 -2,5 2,4 4,3 -7,6 v 5 l 3,2 -3,3 4,4 -3,3 3,2 h 8 v 8 l 3,5 h 1 l 7,-4 10,4 7,10 h 4 l 6,-6 2,3 4,-4 5,2 1,1 4,-3 -1,-4 -2,-2 3,-4 h 2 l 2,-6 2,-3 -1,-6 4,-6 7,-5 v -9 l 3,1 4,4 h 4 l 2,-2 -2,-5 2,-6 -1,-6 -2,-3 v -5 l 3,-5 -1,-5 -1,-1 -3,3 h -7 l -3,3 h -4 l -4,-3 -1,-3 h -9 l -2,-2 z"
       label="Corrèze"
       city="Tulle" />
    <path
       id="dep_23"
       d="m 458,487 -2,6 h -6 l -2,-1 h -4 l -3,-2 -7,7 v 6 l -4,8 1,5 5,1 3,8 3,3 -1,15 7,-2 2,3 -4,4 v 3 l 4,1 6,-1 2,-3 h 1 l -1,5 6,2 4,4 v 2 h -2 v 4 l 2,2 1,-1 6,-1 1,-4 h 3 l 2,2 h 9 l 2,3 3,3 h 4 l 3,-3 h 7 l 3,-3 -7,-8 -1,-3 7,-4 4,-2 1,-5 4,-3 -1,-7 -3,-4 -1,-11 -4,-9 -4,-2 -3,-5 -2,4 -3,-4 v -4 l -4,-6 -12,1 -7,-2 z"
       label="Creuse"
       city="Guéret" />
    <path
       id="dep_87"
       d="m 428,493 -3,3 -10,-1 h -1 l -6,1 -5,4 v 4 h -7 l -5,6 -3,2 3,3 -1,9 -2,4 3,3 h 5 l 1,5 1,4 -7,1 -3,1 1,9 -5,3 -3,1 -2,5 h -3 l -1,6 h 8 l 2,4 -1,4 3,4 2,-1 3,-3 11,1 2,7 8,1 2,3 -5,2 2,2 8,1 v 2 l 2,-4 5,1 5,-6 2,1 3,-4 h 7 l 2,-2 h 4 l 3,-5 4,-1 3,-4 4,1 h 2 l 2,-3 -2,-2 v -4 h 2 v -2 l -4,-4 -6,-2 1,-5 h -1 l -2,3 -7,1 -3,-1 v -3 l 4,-4 -2,-4 -7,3 1,-15 -3,-3 -3,-8 -5,-1 -1,-5 4,-8 v -6 1 z"
       label="Haute-Vienne"
       city="Limoges" />
    <path
       id="dep_86"
       d="m 334,409 -7,8 -2,3 1,8 h 3 v 4 l 2,6 2,5 -3,2 1,2 -1,3 v 1 l 3,3 v 2 l -2,3 -4,6 4,2 2,3 -2,4 v 2 l -3,4 v 3 h 2 v 8 l 3,2 -2,3 1,2 3,4 2,-3 v -1 l 3,-2 2,2 v 5 l -2,3 -2,5 2,4 6,2 -1,3 -5,1 4,6 7,-1 5,-1 6,3 2,-2 -1,-5 3,-2 3,4 2,3 7,-3 3,-3 h 6 l 3,2 1,-7 -3,-3 3,-2 5,-6 h 7 v -5 l 5,-3 9,-2 1,-5 -4,-2 -2,-8 h -6 l -3,-4 -7,-5 1,-5 v -7 l -6,-6 -1,-5 -6,-7 -3,-8 -2,-1 -3,-4 -3,2 1,3 -9,3 h -11 v -5 -7 l -9,-2 v -4 l -6,-2 -2,-5 h -3 z"
       label="Vienne"
       city="Poitiers" />
    <path
       id="dep_16"
       d="m 366,519 -3,2 1,5 -2,2 -6,-3 -5,1 -7,1 -4,-6 h -2 l -6,4 -5,1 v 2 l -3,4 1,1 -4,3 -2,11 -1,7 -3,1 h -4 l -1,-2 h -4 l -2,2 h -6 l -4,2 3,2 1,8 h 1 l -2,3 3,2 4,4 2,4 3,3 -1,4 -1,2 2,2 v 3 l -5,3 2,2 3,1 v 1 l -4,1 v 2 l 3,1 7,-1 4,4 2,3 7,5 2,-2 7,1 3,-3 7,-7 v -12 l 17,-12 v -9 h 6 l 3,-6 h 2 l 1,-6 h 3 l 2,-5 3,-1 5,-3 -1,-9 3,-1 7,-1 -1,-4 -1,-5 h -5 l -3,-3 2,-4 v -3 l -3,-1 h -6 l -3,3 -7,3 -2,-3 z"
       label="Charente"
       city="Angoulême" />
    <path
       id="dep_79"
       d="m 321,416 -10,1 -9,1 -10,1 v 5 l -5,3 -11,-2 -7,3 3,5 v 4 l 9,8 -2,4 6,7 -3,3 4,6 1,10 -2,3 2,4 -2,5 v 3 l 3,-3 3,4 -5,3 -1,2 -5,1 -4,2 h -1 l 1,6 4,4 v 2 l 5,5 h 8 l 5,7 8,-1 7,4 5,3 1,4 3,3 3,-2 -1,-2 3,-4 v -2 l 5,-1 6,-4 7,-1 1,-3 -6,-2 -2,-4 2,-5 2,-3 v -6 l -2,-1 -3,1 v 2 l -2,3 -3,-4 -1,-2 2,-3 -3,-2 v -8 h -2 v -3 l 3,-4 v -2 l 2,-4 -2,-3 -4,-2 4,-6 2,-3 v -2 l -3,-3 v -1 l 1,-3 -1,-2 3,-2 -2,-5 -2,-6 v -4 h -3 l -1,-8 v 1 l -3,-2 z"
       label="Deux-Sèvres"
       city="Niort" />
    <path
       id="dep_22"
       d="m 114,220 -3,3 -8,1 -2,2 -6,-4 -7,5 2,4 -5,7 -2,9 5,1 -1,4 3,2 -2,3 -3,1 1,4 4,1 -4,1 v 5 l 3,3 v 11 l -1,2 1,5 6,1 v 3 l 4,1 3,-2 2,2 7,2 5,-3 2,-3 h 4 l 6,5 5,-1 4,4 h 2 l 2,3 h 5 l 1,-2 2,4 4,1 6,-3 v -4 l 4,-1 h 3 l 3,5 7,1 4,-4 4,-9 5,-2 2,-3 3,2 6,-1 2,-16 1,-7 -1,-4 -3,-1 -2,-11 -3,3 -7,-1 v 4 l -5,1 v -5 l -4,-1 -2,2 v -7 l -4,4 -7,-2 -2,5 -13,7 v 4 h -3 v -7 l -8,-4 1,-6 -7,-5 v -6 l -5,-1 v -6 l -4,-1 1,-4 h -8 l -1,4 z"
       label="Côtes-d'Armor"
       city="Saint-Brieuc" />
    <path
       id="dep_85"
       d="m 241,417 -2,3 h -6 l 3,3 -2,6 -6,2 -2,-2 1,-6 -1,-3 h -4 l -2,2 1,9 3,4 -3,3 -5,-1 -7,-2 -2,-6 h -5 l -6,-3 -2,-4 -7,-4 -10,14 -1,9 11,10 v 4 h 3 l 7,20 7,4 8,7 h 8 l 3,7 h 8 l 4,6 8,4 v -6 l 2,2 11,-6 5,-1 2,6 7,-3 6,4 4,-2 5,-1 1,-2 5,-3 -3,-4 -3,3 v -3 l 2,-5 -2,-4 2,-3 -1,-10 -4,-6 3,-3 -6,-7 2,-4 -9,-8 v -4 l -3,-5 -5,-4 h -9 l -3,-2 -4,-1 -5,-4 z"
       label="Vendée"
       city="La Roche-sur-Yon" />
    <path
       id="dep_50"
       d="m 206,136 -1,3 7,7 v 7 l -3,4 2,2 h 1 v 7 l 2,6 8,9 2,9 2,2 v 13 l 4,9 v 10 l -4,9 5,13 8,2 v 4 l -3,2 h -7 l 1,4 2,7 6,5 3,1 3,-4 h 3 l 4,-5 4,3 h 4 l 3,1 v 1 l 6,1 4,-3 5,2 6,-5 2,-7 v -3 l 1,-3 -4,-4 -9,-6 h -7 l -7,-9 6,-2 2,-5 -3,-2 3,-3 2,2 5,-3 3,-4 1,-5 -2,-4 2,-2 -3,-4 3,-4 -3,-3 -2,4 -5,-3 -7,-6 v -3 l 2,-3 v -3 h -4 v -8 l -10,-11 3,-8 h 4 l -3,-9 -16,-1 -8,6 -9,-6 z"
       label="Manche"
       city="Saint-Lô" />
    <path
       id="dep_56"
       d="m 89,289 -6,3 h -4 l -5,3 v 3 l 3,7 1,5 10,2 4,4 2,-3 3,4 -2,2 v 5 h -3 l -2,4 h -4 l -2,7 4,6 6,2 2,-4 -1,4 5,2 7,7 2,4 -1,5 -1,4 5,4 2,-3 -2,-3 v -6 l 4,1 2,-5 1,3 4,4 3,-4 -3,-5 4,6 5,-1 -1,-3 5,2 4,4 -2,3 -5,-2 -5,-2 -3,3 4,2 3,5 20,-2 5,1 -2,2 v 3 1 h 2 l 3,-3 2,2 h 6 l 7,-4 10,-3 1,-11 2,-1 -4,-7 3,-3 -1,-1 -1,-2 3,-1 3,-4 -1,-3 h -3 l -1,-4 2,-3 -3,-6 -4,-2 h -5 l -2,-1 v -2 l 3,-2 1,-6 -1,-4 -1,1 h -7 l -3,-6 h -3 l -4,1 v 4 l -6,4 -4,-2 -2,-4 -2,2 h -4 l -2,-3 h -2 l -4,-4 -5,1 -6,-5 -5,1 -1,3 -6,3 -7,-3 -1,-2 -3,2 h -4 v -3 l -6,-2 z"
       label="Morbihan"
       city="Vannes" />
    <path
       id="dep_29"
       d="m 61,231 -5,4 -4,-2 -8,1 -1,4 -5,1 -1,-4 -8,1 v 3 h -6 l -2,-2 -3,2 -1,4 H 8 l -6,6 5,4 -6,4 2,4 -2,7 6,1 2,-2 1,1 14,-1 9,-7 -8,8 1,3 7,-3 -1,5 h 7 v 3 l -8,-1 -7,-2 -9,-3 -5,5 7,3 -1,9 2,-1 4,-6 8,4 3,1 2,5 -2,4 h -5 -4 l -8,1 -12,1 -2,3 3,2 h 4 l 4,3 4,-1 8,9 2,9 -3,5 8,2 h 8 l 2,-4 -4,-4 4,1 h 3 l 6,3 h 3 v -7 l 2,7 5,7 10,1 v -2 l 2,3 7,1 h 4 l 1,1 1,-7 h 4 l 3,-4 h 2 l 1,-5 1,-2 -3,-3 -2,2 -4,-4 -9,-1 -2,-6 -3,-7 v -2 l 5,-4 h 4 l 6,-3 -1,-4 1,-2 v -11 l -3,-3 v -5 l 4,-1 -4,-1 -1,-4 3,-1 2,-3 -3,-2 1,-4 -5,-1 2,-9 -6,-4 -10,1 v 7 h -3 v -3 h -5 z"
       label="Finistère"
       city="Quimper" />
    <path
       id="dep_35"
       d="m 200,244 -4,3 3,12 3,1 1,3 -1,7 -2,16 -6,1 -3,-2 -2,3 -5,2 -4,9 -3,3 1,3 -1,6 -3,3 v 2 l 2,1 h 5 l 5,2 3,6 -3,3 1,4 h 4 v 4 l -3,3 -3,2 2,1 v 2 l -3,2 4,7 7,-3 22,-2 2,-4 3,-3 8,-1 1,-4 h 5 l 3,5 8,2 1,-3 2,-7 5,-11 2,-2 6,1 v -10 l -2,-2 v -11 l -1,-3 v -6 l 3,-4 v -7 l -2,-1 1,-11 -3,-1 h -4 l -4,-3 -4,5 h -3 l -3,4 h -3 l -6,-6 -2,-7 -1,-4 h -18 l -7,-4 5,-6 z"
       label="Ille-et-Vilaine"
       city="Rennes" />
    <path
       id="dep_44"
       d="m 231,336 -1,4 -8,1 -3,4 -1,3 -23,2 -9,5 -1,10 -10,4 -7,3 h -5 l -3,-2 -3,3 h -1 l 1,1 -6,7 1,1 2,3 -4,5 4,2 7,2 v -3 l 4,5 h 7 l 5,-5 h 6 l -7,3 1,4 1,3 -4,4 h -4 l 1,5 7,-1 10,9 h -1 l 7,4 2,4 6,3 h 5 l 2,6 7,2 5,1 3,-3 -3,-4 -1,-9 2,-2 h 4 l 1,3 -1,6 2,2 6,-2 2,-6 -3,-3 h 6 l 2,-3 h 2 l 5,4 3,1 v -4 l -2,-4 h -3 -1 -2 l 2,-2 v -3 l 3,-1 1,-4 -1,-1 v -5 h -4 l -4,-5 v -3 l 4,-3 8,-1 h 11 l 4,-2 -1,-7 -6,-5 h -6 l -2,-1 v -6 l 4,-4 -3,-4 -3,-6 -3,-3 v -4 l -1,-1 -7,-2 -3,-4 z"
       label="Loire-Atlantique"
       city="Nantes" />
    <path
       id="dep_49"
       d="m 248,341 -1,2 h -1 v 1 4 l 4,2 3,7 3,4 -4,4 v 6 l 2,1 6,-1 6,5 1,8 -4,2 h -11 l -8,1 -4,2 v 4 l 4,5 h 4 v 5 l 2,1 -2,4 -3,1 v 3 l -2,2 h 2 1 3 l 3,4 v 4 l 3,2 h 9 l 5,4 7,-3 11,2 5,-3 v -5 l 10,-1 9,-1 10,-1 1,3 3,2 2,-4 7,-8 h 3 l 4,-15 5,-6 v -8 l 4,-5 v -2 l -2,-2 1,-3 -5,-1 -15,-10 -14,-4 h -5 v -4 l -4,-2 h -3 l -6,-3 -5,5 h -9 l -4,-2 -11,-4 -2,3 -6,-3 h -6 z"
       label="Maine-et-Loire"
       city="Angers" />
    <path
       id="dep_72"
       d="m 359,273 h -9 l -10,9 h -5 l -7,2 -2,4 -1,7 1,5 -6,5 -1,3 1,3 -2,3 1,2 h -6 l -1,3 3,6 -1,2 -2,2 -5,1 -1,1 2,2 v 11 l -1,3 3,2 v 4 h 5 l 14,4 15,10 5,1 3,-4 7,5 h 4 l -2,-8 4,3 2,-3 11,-3 -2,-5 3,-3 5,-2 5,-6 v -7 h 4 l 1,-5 1,-8 -4,-3 3,-5 4,-6 -5,-3 -5,-1 -5,-7 h -1 l -1,3 v -2 h -7 l -4,-6 -6,-2 -2,-13 z"
       label="Sarthe"
       city="Le Mans" />
    <path
       id="dep_53"
       d="m 322,263 h -3 l -2,4 -5,2 -10,-1 -10,5 -3,-2 -6,4 -4,-3 -2,-5 -6,-2 -3,3 -6,-1 -1,10 2,1 v 7 l -3,4 v 6 l 1,3 v 11 l 2,2 v 10 l -6,-1 -2,2 -5,11 -2,7 -1,1 7,1 h 5 l 6,4 3,-3 10,4 5,2 h 9 l 4,-5 7,3 h 4 l 1,-3 v -11 l -2,-2 1,-2 h 5 l 2,-2 1,-2 -3,-6 1,-3 h 6 l -1,-2 2,-4 -1,-2 1,-3 6,-5 -1,-4 1,-8 2,-4 7,-2 h -1 l -2,-6 -5,-2 -1,-8 z"
       label="Mayenne"
       city="Laval" />
    <path
       id="dep_14"
       d="m 360,173 -9,2 -13,8 -16,6 -12,-7 -30,-4 -7,-4 -10,3 v 4 l -2,2 v 3 l 7,7 5,2 2,-4 3,3 -3,4 3,4 -2,2 2,4 -1,5 -3,5 -5,2 -2,-1 -3,2 3,3 -2,4 -6,2 7,9 h 7 l 5,4 7,-3 6,-6 7,2 7,-4 4,-2 4,5 7,-2 6,4 7,-3 7,-5 4,-5 h 3 l 1,3 h 2 l 1,-3 7,-1 2,1 7,-1 2,-4 -1,-3 -4,-1 v -3 l 3,-2 1,-4 -2,-8 -5,-7 4,-2 v -1 l -4,-1 z"
       label="Calvados"
       city="Caen" />
    <path
       id="dep_61"
       d="m 367,223 -7,1 -2,-1 -7,1 -1,3 h -2 l -1,-3 h -3 l -4,5 -7,5 -7,3 -6,-4 -7,2 -4,-5 -4,2 -7,4 -7,-2 -6,6 -7,3 4,2 4,4 -1,3 v 3 l -2,7 -6,6 2,4 4,3 6,-4 3,2 10,-5 10,1 5,-2 2,-4 h 3 l 4,3 1,8 5,2 2,6 h 6 l 10,-9 h 9 l 3,4 2,13 6,2 4,6 h 7 v 2 l 1,-4 h 1 l 6,8 3,1 v -9 l -2,-3 -1,-3 6,-3 5,-1 4,-5 -1,-13 -8,-7 v -6 l -6,-4 2,-4 -2,-5 -5,-2 -3,-3 -2,-5 -10,-1 -3,-4 z"
       label="Orne"
       city="Alençon" />
    <path
       id="dep_28"
       d="m 442,225 -2,2 v 6 l -8,4 v 5 l -2,2 h -9 l -4,-1 -13,7 h -5 l -5,4 1,1 v 6 l 8,7 v 13 l -3,5 -6,1 -5,3 1,3 2,3 v 9 h 1 l 5,3 -2,3 4,2 5,-1 h 4 v 1 l -4,2 3,1 h 5 l 2,5 3,1 2,5 8,3 5,-1 4,-4 4,1 1,-2 v -3 l 2,-1 3,2 3,-2 v -2 l 2,-2 3,1 2,2 4,-2 h 5 l 3,-3 2,-7 h 3 l -1,-7 3,-3 -1,-2 1,-1 h -1 l -1,-9 -1,-2 -1,-4 -7,-2 -3,-4 -1,-7 -5,-1 v -4 l -6,-4 -2,-6 2,-4 -2,-3 v -4 l 1,-4 -3,-3 -1,-4 z"
       label="Eure-et-Loir"
       city="Chartres" />
    <path
       id="dep_89"
       d="m 573,283 -3,3 -14,-1 -6,3 -3,6 3,3 -4,5 -4,4 7,6 2,6 4,5 v 6 l -9,8 3,4 v 5 l -6,4 h -7 l 1,4 5,6 1,6 1,4 -2,1 5,1 h 3 l 2,-3 h 2 l 3,2 -1,3 3,2 h 3 l 5,3 2,-1 2,2 2,-1 3,-2 4,1 2,-1 v -6 h 1 l 1,3 4,3 v 4 h 6 l 8,7 5,1 v -3 l 2,-3 1,3 -1,2 1,2 3,-1 h 3 v 5 l 3,2 2,-1 6,-4 v -1 l -4,-2 v -4 l 4,-1 1,-2 -1,-2 v -4 l 3,-4 4,-9 1,-4 3,-1 v -1 l -2,-1 v -3 l 5,-3 1,-5 -2,-3 h -3 l -1,-1 v -4 l 4,-3 v -3 l -1,-2 -2,4 -2,-1 -2,-4 -8,4 -14,-1 -2,-4 -4,-5 v -7 l -6,-7 -4,3 -6,-5 1,-10 -9,-10 h -5 l -2,-2 z"
       label="Yonne"
       city="Auxerre" />
    <path
       id="dep_70"
       d="m 767,317 -6,1 -2,3 -3,3 -3,-3 -1,1 1,2 -4,2 1,3 -3,2 v 5 h -6 v 2 l -5,1 v 5 h 4 l -2,2 -1,8 h -3 l -6,1 -6,-1 -5,1 v 4 l 4,1 3,6 1,3 -5,5 -2,1 -2,2 4,1 1,6 h 3 l 1,8 1,1 v 1 l 3,1 3,3 h 5 l 2,-2 h 3 3 l 7,-6 h 2 l 3,-2 7,1 6,-5 4,-1 2,-4 3,-1 3,-5 5,-4 5,-1 3,3 7,-1 v -4 l 3,-1 2,-3 h 4 l 3,-3 v -5 -4 l -1,-6 v -4 l 3,-2 3,-2 -12,-7 -3,-3 -3,-2 -3,1 -1,2 -2,2 h -2 l -6,-6 h -7 l -4,2 -2,1 -5,-4 v -4 z"
       label="Haute-Saône"
       city="Vesoul" />
    <path
       id="dep_76"
       d="m 432,106 -2,3 -16,12 -27,7 -18,6 -15,8 -9,13 -1,10 7,6 10,2 h -1 l 8,-1 4,-4 3,-1 4,6 h 5 l 2,4 8,-1 9,6 -5,2 4,3 h 2 l 3,5 h 4 l 1,-3 -3,-2 9,-3 9,-1 2,-6 5,-4 8,-1 10,5 5,1 1,-3 3,-5 1,-2 h -3 v -6 l -2,-4 1,-7 1,-4 h -2 l 1,-4 4,-4 -4,-6 -1,-7 -16,-15 -2,-4 h -4 z"
       city="Rouen"
       label="Seine-Maritime" />
    <path
       id="dep_27"
       d="m 375,167 -3,1 -4,4 -8,1 1,14 4,1 v 1 l -4,2 5,7 2,8 -1,4 -3,2 v 3 l 4,1 1,3 -3,9 3,3 10,1 2,5 3,3 5,2 2,5 -2,4 5,3 5,-4 h 5 l 13,-7 4,2 h 9 l 2,-3 v -5 l 8,-4 v -6 l 1,-2 v -1 l 2,-2 -3,-1 v -2 l -2,-3 2,-2 10,-3 2,-4 2,-8 3,-4 1,-4 3,2 2,-1 -1,-3 -1,-8 -4,-3 -5,-1 -10,-5 -8,1 -5,3 -2,7 -9,1 -9,3 3,2 -1,3 h -4 l -3,-5 h -2 l -4,-3 5,-2 -9,-6 -8,1 -2,-4 h -5 z"
       label="Eure"
       city="Évreux" />
    <path
       id="dep_37"
       d="m 377,356 1,2 -11,3 -2,3 -4,-3 2,8 h -4 l -7,-5 -4,7 2,2 v 2 l -4,5 1,8 -6,7 -4,14 2,6 6,2 v 4 l 9,2 v 7 5 h 10 l 10,-3 -1,-4 3,-1 3,4 2,1 3,8 6,7 1,5 5,6 3,-1 4,-3 3,-15 2,-5 1,-7 6,-2 4,1 2,2 3,-4 3,-3 v -3 h 3 l 1,-3 -3,-4 1,-2 -2,-2 -6,-8 h -7 l -2,-3 v -12 l -3,-8 v -9 l -4,-1 -4,-3 h -1 l -4,3 -2,-2 -1,-3 3,-2 v -1 l -1,-1 z"
       label="Indre-et-Loire"
       city="Tours" />
    <path
       id="dep_45"
       d="m 491,289 -5,4 -10,1 -1,1 1,2 -3,3 1,7 h -3 l -2,7 -3,3 h -5 l -4,2 -2,-2 -3,-1 -2,2 v 3 l -3,1 -3,-2 -2,1 v 3 l -1,2 h 1 3 v 2 l -2,4 v 2 h 2 l 2,2 v 2 l -4,4 2,5 v 2 l 4,3 h 4 l 3,3 1,4 3,4 4,-1 2,-3 h 5 l 2,2 h 3 l 2,-2 h 13 l 3,5 4,1 3,3 h 4 l 1,-2 h 2 l 3,4 h 6 l 2,2 4,6 2,1 h 2 v -5 h 1 2 l 2,3 2,1 4,-1 -1,-1 v -4 l 7,-2 -1,-4 -1,-6 -5,-6 -1,-4 h 8 l 5,-4 v -5 l -3,-4 9,-8 v -6 l -4,-5 -2,-6 -7,-6 -9,5 v -3 h -4 l -1,3 h -4 -10 l -4,2 -3,-2 6,-4 -1,-7 -4,-2 -4,-5 -9,-1 z"
       label="Loiret"
       city="Orléans" />
    <path
       id="dep_36"
       d="m 456,401 -3,1 h -4 l -6,2 -1,3 -1,-1 h -6 l -3,2 -3,1 -1,2 3,4 -1,3 h -3 v 3 l -3,3 -3,4 -2,-2 -4,-1 -6,2 -1,7 -2,5 -3,15 -4,3 -3,1 h 1 v 7 l -1,5 7,5 3,4 h 6 l 2,8 4,2 -1,6 h -3 1 l 10,1 3,-3 6,5 7,-8 3,2 h 4 l 2,1 h 6 l 2,-6 18,3 7,1 h 3 l 1,-3 3,-4 v -3 l -3,-4 1,-1 v -5 l 2,-2 v -1 l -3,-2 -1,-4 -5,-3 v -3 l 4,-2 v -2 l -4,-3 -1,-2 3,-1 -1,-2 5,-4 -1,-1 h -3 l -2,-2 v -2 l 2,-3 v -2 l -4,-6 v -5 l -2,-1 h -5 l -4,1 h -5 l -2,-2 -1,-2 4,-3 v -4 l -5,-4 z"
       label="Indre"
       city="Châteauroux" />
    <path
       id="dep_41"
       d="m 396,311 -2,3 -3,5 4,3 -1,8 -1,5 h -4 v 7 l -5,6 -5,2 -3,3 1,3 18,1 1,1 v 1 l -3,2 1,3 2,2 4,-3 h 1 l 4,3 4,1 v 9 l 3,7 v 13 l 2,3 h 7 l 6,9 1,1 h 1 l 3,-1 3,-2 h 6 l 1,1 1,-3 6,-2 h 4 l 3,-1 3,3 5,4 5,-1 v -4 l 2,-3 h 2 l 2,2 7,-1 5,-2 -1,-2 -1,-2 v -3 l 3,-6 5,-2 v -4 l 1,-2 -3,-1 -2,-4 -4,-1 -1,-2 5,-4 5,-3 -3,-4 h -13 l -2,2 h -3 l -2,-2 h -5 l -2,3 -4,1 -3,-4 -1,-4 -3,-3 h -4 l -4,-3 v -2 l -2,-5 4,-4 v -2 l -2,-2 h -2 v -2 l 2,-3 v -3 h -3 l -5,-1 -4,4 -5,1 -8,-2 -2,-6 -3,-1 -2,-4 h -5 l -3,-2 4,-2 v -1 h -4 l -5,1 z"
       label="Loir-et-Cher"
       city="Blois" />
    <path
       id="dep_18"
       d="m 494,363 -5,3 -5,4 v 2 l 5,1 2,4 3,1 -1,2 v 4 l -5,2 -3,6 v 3 l 1,2 1,2 -5,2 -7,1 -2,-2 h -2 l -2,3 v 4 l -5,1 v 4 l -4,3 1,2 2,2 h 5 l 4,-1 h 5 l 2,2 v 4 l 4,6 v 2 l -2,3 v 2 l 2,2 h 3 l 1,1 -5,4 1,2 -3,1 1,2 4,3 v 2 l -4,2 v 3 l 5,3 1,4 3,2 v 1 l -2,2 v 5 l -1,1 3,4 v 3 l -3,4 v 3 l 8,-1 2,-4 4,-5 9,-2 5,1 5,-4 v -2 l -2,-2 v -6 l 10,-9 3,4 3,-4 h 3 l 5,-6 h 9 v 2 l 3,-9 -2,-3 v -5 l 1,-9 -4,-4 1,-9 -4,-7 v -5 l -6,-5 -2,-5 4,-4 v -7 l -4,-4 -4,1 -1,-1 -3,-3 h -2 -1 v 5 h -2 l -2,-1 -4,-6 -2,-2 h -6 l -3,-4 h -2 l -1,2 h -4 l -3,-3 -4,-1 z"
       label="Cher"
       city="Bourges" />
    <path
       id="dep_21"
       d="m 656,320 v 5 l -5,2 h -12 l 1,3 v 3 l -4,2 v 5 l 1,1 h 3 l 2,2 -1,6 -5,3 v 3 l 2,1 v 1 l -3,1 -1,4 -4,8 -3,5 v 4 l 1,2 -1,2 -4,1 v 4 l 4,2 1,3 -1,4 v 3 l 2,3 5,1 2,4 v 1 l -2,1 v 3 h 1 l 7,8 7,-1 6,5 5,4 v 4 l 5,1 4,3 11,-3 8,-3 h 3 l 1,-2 h 4 l 3,2 4,-1 4,-3 3,1 v -1 l 3,-1 -1,-2 -1,-2 2,-3 6,-3 v -3 l 3,-3 2,-2 -1,-3 1,-4 1,-6 h 1 v -2 l -1,-1 -1,-8 h -3 l -1,-5 -4,-2 2,-2 2,-1 5,-5 -1,-3 -3,-6 -4,-1 -1,4 -8,2 -1,-2 -6,-8 -3,2 h -4 l -2,-3 -6,1 v -7 l -3,-2 4,-5 -8,-11 -6,-7 -6,-3 z"
       label="Côte-d'Or"
       city="Dijon" />
    <path
       id="dep_58"
       d="m 552,369 -2,3 h -3 l -5,-1 -5,1 v 4 l 5,5 v 7 l -4,4 2,5 6,5 v 5 l 4,7 -1,9 4,4 -1,9 v 5 l 2,3 -3,9 v 3 l 6,3 5,4 3,-2 4,-2 1,3 h 5 l 2,-3 3,2 1,5 3,-1 7,-9 3,2 1,1 5,-3 h 3 l 2,4 h 3 l 3,-3 h 3 l 3,-3 2,-1 1,-2 5,1 1,-2 -3,-2 v -2 l 4,-2 v -2 l -4,-2 v -4 -4 l -2,-1 2,-3 1,-1 2,-3 -2,-1 -2,-3 3,-4 4,-2 h 5 v -4 l 2,-1 v -1 l -2,-4 -6,-1 -1,-3 v -3 l 1,-4 -1,-2 -6,4 -2,1 -3,-2 v -5 h -3 l -3,1 -1,-2 2,-2 -2,-3 -2,3 v 3 h -5 l -8,-8 h -6 v -4 l -4,-3 -1,-3 h -1 v 6 l -2,1 -4,-1 -3,2 h -2 l -2,-1 -2,1 -5,-3 h -3 l -3,-2 1,-3 -3,-2 z"
       label="Nièvre"
       city="Nevers" />
    <path
       id="dep_71"
       d="m 634,413 v 1 h -5 l -4,2 -3,4 2,3 2,1 -1,3 -2,1 -2,3 2,2 v 3 4 l 4,2 v 2 l -4,2 v 2 l 3,2 -1,2 -5,-1 -1,2 -2,1 -3,3 h -3 l -3,3 h -3 l -2,-4 h -3 l -5,3 7,13 v 5 l 1,2 h 7 l 2,3 h 5 l 3,4 v 14 l -8,6 h 1 l 1,6 5,1 1,3 h 3 l 4,-3 12,2 2,2 3,-3 h 4 l 2,-11 1,-1 h 4 l 4,3 4,-3 2,3 3,-4 h 4 l 2,6 1,7 h 3 l 2,-5 7,-26 2,-5 h 4 l 4,3 3,-1 4,-2 h 3 l 2,5 2,1 10,-1 4,-3 -2,-2 -4,-2 -1,-5 4,-3 1,-6 -3,-5 -2,-3 1,-1 v -4 l -3,-2 v -3 l 8,-1 1,-3 h -3 l -2,-2 h -4 l -3,-6 h -3 v -4 l -3,-1 -4,3 -4,1 -3,-1 -4,-1 -1,2 h -3 l -8,3 -11,3 -4,-3 -5,-1 v -4 l -5,-4 -6,-5 -7,1 -7,-8 z"
       label="Saône-et-Loire"
       city="Mâcon" />
    <path
       id="dep_39"
       d="m 726,394 v 1 h -1 l -1,6 -1,4 1,3 -2,2 -3,3 v 3 l -6,3 -2,3 1,2 1,2 -3,1 v 5 h 3 l 3,6 h 4 l 2,2 h 3 l -1,3 -8,1 v 3 l 3,2 v 4 l -1,1 2,3 3,5 -1,6 -4,3 1,5 4,2 2,2 -4,3 -10,1 5,2 7,10 5,2 v 5 l 5,-1 7,-7 6,2 v 5 h 10 l 15,-17 v -8 l 6,-6 -4,-2 1,-2 h -5 v -3 l 3,-3 -1,-2 -2,-4 7,-2 2,-4 1,-4 -5,-5 -4,-1 -8,-2 v -8 l -1,-5 -6,1 -10,-4 1,-3 3,-6 v -3 l -2,-4 -5,-3 v -4 -2 h -4 l -1,2 h -5 l -3,-3 z"
       label="Jura"
       city="Lons-le-Saunier" />
    <path
       id="dep_51"
       d="m 608,176 -4,2 1,4 h -8 l -7,5 v 9 l 5,3 2,4 h -9 v 4 l 3,2 -2,2 -3,2 1,2 h 4 l 2,3 -3,2 -3,7 -5,3 -2,4 -2,2 1,2 -3,2 -1,5 3,2 1,5 -2,3 2,3 h 5 v 1 h 1 l 7,7 8,-2 11,-7 h 6 l 6,-4 7,-4 h 6 l 1,7 6,10 h 8 l 10,-2 7,3 8,-6 1,-9 8,-1 v -6 l -7,-5 v -3 l 2,-5 -2,-2 2,-5 4,-2 3,-9 -6,1 4,-4 -3,-8 -2,-5 3,-3 -2,-1 -1,-2 -3,-3 -4,4 h -1 l -2,-2 h -8 l -2,2 h -2 l -3,-5 h -4 l -2,1 h -4 l -6,-5 -4,-1 -2,-2 -7,-5 h -9 v 3 l -2,1 z"
       label="Marne"
       city="Chalons-en-Champagne" />
    <path
       id="dep_60"
       d="m 460,141 -2,2 -1,4 h 2 l -1,4 -1,7 2,4 v 6 h 3 l -1,2 -3,5 -1,3 4,3 1,8 1,3 -2,1 -3,-2 -1,4 2,3 2,4 10,1 7,-1 4,-4 6,4 3,2 4,-1 4,-2 8,4 8,5 2,3 4,-3 4,2 2,2 4,-1 2,-3 5,3 6,-2 3,1 4,-3 2,-1 h 1 l 1,-5 -3,-3 -4,-3 -2,3 -1,1 -1,-6 4,-1 -1,-5 h -4 l 2,-4 6,-1 2,-9 4,-2 -5,-3 2,-3 v -11 l -1,-9 -8,1 -5,-1 -9,3 -9,8 -6,-3 h -7 l -5,-5 -9,-3 -13,1 -3,-2 h -6 l -5,1 -2,-1 v -4 l -1,-1 z"
       label="Oise"
       city="Beauvais" />
    <path
       id="dep_62"
       d="m 483,9 -20,3 -16,13 v 50 l 5,1 2,4 4,-1 3,-3 3,1 7,5 2,-1 2,4 7,3 v 4 l 5,2 4,-2 9,-1 2,2 5,-2 2,4 -6,3 v 5 l 2,2 h 2 l 1,-3 3,-2 3,2 8,3 h 3 v -4 l 5,3 v 3 l -2,3 4,-2 3,-1 2,2 v 3 l 5,-3 h 9 l 2,-4 -1,-2 h -3 -4 l -2,-1 4,-2 h 3 3 l 1,-6 2,-2 v -3 l -4,-3 h -5 l -1,-1 3,-2 1,-2 -3,-2 -3,-4 v -2 l 5,-3 1,-2 -4,-2 -2,-4 -6,-1 -7,-2 v -7 l 4,-3 -2,-4 h -3 l -3,4 -11,-1 -9,-2 -5,-5 v -5 l 4,-1 -4,-3 h -8 L 490,20 482,8 Z"
       label="Pas-de-Calais"
       city="Arras" />
    <path
       id="dep_59"
       d="m 513,0 -11,6 -18,2 h -2 l 8,12 4,12 h 8 l 4,3 -4,1 v 5 l 5,5 9,2 11,1 3,-4 h 3 l 2,4 -4,3 v 7 l 7,2 h 6 l 2,5 4,2 -1,2 -5,2 v 3 l 3,4 3,2 -1,2 -3,2 1,1 h 5 l 4,3 v 3 l -2,2 -1,6 h -3 -3 l -4,2 h 2 4 l 3,1 1,2 -2,4 3,3 3,1 3,-2 h 4 l 1,2 h 1 l 5,-3 4,3 6,-4 h 2 l 3,2 6,-4 2,1 2,2 h 9 v 3 l 4,-3 h 2 l 2,4 7,2 2,-1 h -1 v -4 l 7,-4 -1,-7 -7,-2 2,-1 v -5 l 5,-4 -1,-3 -12,-9 -20,1 -2,4 h -3 l 1,-13 -6,-7 -5,1 -2,-3 -7,3 -3,-3 h -5 l -1,-5 -1,-14 -3,-2 v -2 h -2 l -1,-4 h -5 l -9,3 -4,5 h -5 l -2,-3 -1,-4 -4,-4 h -5 l -2,-4 v -6 l 2,-4 -1,-6 z"
       label="Nord"
       city="Lille" />
    <path
       id="dep_02"
       d="m 592,107 -6,5 -3,-3 h -2 l -6,4 -4,-3 -5,3 h -1 l -1,-2 h -4 l -3,2 v 5 l -4,5 v 5 l -3,3 v 5 l 2,7 2,13 v 11 l -2,3 5,3 -4,2 -2,9 -6,1 -2,4 h 4 l 1,5 -4,1 1,6 1,-1 2,-3 4,3 3,3 -1,5 3,3 1,8 10,9 3,1 2,4 6,2 1,-1 2,-4 5,-3 3,-7 3,-2 -2,-3 h -4 l -1,-2 3,-2 2,-2 -3,-2 v -4 h 9 l -2,-4 -5,-3 v -9 l 7,-6 h 8 l -1,-3 4,-2 7,4 2,-1 v -12 l 1,-4 1,-5 -4,-3 1,-3 6,-1 v -5 l 6,-3 1,-4 -2,-3 1,-6 3,-2 -3,-7 1,-6 h -7 l -2,1 -7,-2 -2,-4 h -2 l -4,4 -1,-4 h -8 l -2,-2 z"
       label="Aisne"
       city="Laon" />
    <path
       id="dep_80"
       d="m 447,75 -1,12 8,7 v 4 l -10,-6 -12,14 3,1 h 4 l 2,4 16,15 1,7 4,6 -2,2 h 5 l 1,1 v 4 l 2,1 5,-1 h 6 l 3,2 13,-1 9,3 5,5 h 7 l 6,3 9,-8 9,-3 5,1 8,-1 -1,-4 -2,-7 v -4 l 3,-4 v -5 l 4,-5 v -5 l -3,-1 -4,-3 h -8 l -6,3 v -3 l -1,-2 -3,1 -4,2 2,-3 v -3 l -5,-3 v 4 h -3 l -8,-3 -3,-2 -3,2 -1,3 h -2 l -2,-2 v -5 l 6,-4 -2,-3 -5,2 -2,-2 -9,1 -4,2 -5,-2 v -4 l -7,-3 -2,-4 -2,1 -7,-5 -3,-1 -3,3 -4,1 -2,-4 z"
       label="Somme"
       city="Amiens" />
    <path
       id="dep_08"
       d="m 664,96 -3,5 -4,3 v 8 l -4,3 -8,2 -4,2 -5,-4 h -7 l -1,7 3,6 -3,3 v 5 l 1,3 -1,4 -6,3 v 5 l -6,1 -1,3 4,3 -1,4 -1,5 v 9 h 9 l 7,5 2,2 4,1 6,5 h 4 l 2,-1 h 4 l 3,5 h 2 l 2,-3 8,1 2,2 h 1 l 4,-4 3,3 v -2 l 5,-2 2,-2 -2,-4 v -2 l 4,-3 1,-8 -4,-5 1,-3 4,-6 1,1 h 6 l 2,2 3,-2 3,-4 h -3 l -1,-7 -3,-3 -10,-1 -2,-4 -3,-3 -12,-1 -1,-8 2,-2 v -3 l -6,-4 1,-4 2,-3 -3,-2 4,-4 v -6 l -1,-2 h -6 z"
       label="Ardennes"
       city="Charleville-Mézières" />
    <path
       id="dep_10"
       d="m 630,249 -7,4 -6,4 h -6 l -11,7 -8,2 -7,-7 h -1 v 1 l -5,3 v 4 l -3,3 -2,8 v 5 l 2,2 h 4 l 10,10 -2,10 7,5 4,-3 5,7 1,7 4,5 2,4 14,1 8,-4 2,4 h 2 l 2,-4 h 12 l 5,-2 v -5 h 11 l 1,1 -1,-5 -3,-2 4,-3 6,-1 3,-3 -1,-13 -1,-8 -7,-2 -6,-9 v -6 l 2,-4 -3,-1 -10,2 h -8 l -6,-10 -1,-7 z"
       label="Aube"
       city="Troyes" />
    <path
       id="dep_52"
       d="m 685,251 -8,1 -1,9 -8,6 -4,-2 -2,4 v 6 l 6,9 7,2 1,8 1,13 -3,3 -6,1 -4,3 3,2 1,5 5,2 6,7 8,11 -4,5 3,2 v 7 l 6,-1 2,3 h 4 l 3,-1 6,7 1,2 8,-2 1,-4 v -4 l 5,-1 6,1 6,-1 h 3 l 1,-8 2,-2 h -4 v -5 l 5,-1 v -2 h 6 v -5 l 3,-2 -1,-3 h 1 l -3,-3 -4,1 v -7 l -10,-5 2,-10 4,-2 -1,-3 -5,-1 -1,-5 h -5 l -5,-6 -5,-1 -3,-4 3,-3 -7,-8 -4,-1 -8,-4 -5,-5 -7,-1 z"
       label="Haute-Marne"
       city="Chaumont" />
    <path
       id="dep_67"
       d="m 873,200 -7,2 -3,5 v 6 l -3,2 h -2 l -5,-3 -4,3 h -4 l -4,-4 -7,-1 -3,-2 -2,-5 -3,3 -2,9 -5,1 v 5 l 5,2 4,2 -2,4 3,2 6,-4 10,5 -4,8 v 3 l 3,3 -2,7 -7,8 -4,-1 3,3 -2,6 2,10 6,2 v 1 h 5 l 3,3 3,4 h 7 l 3,9 6,2 v -1 l 9,-18 -1,-11 5,-14 1,-12 9,-7 v -4 l 4,-5 h 2 l 4,-3 -1,-6 3,-9 5,-1 -5,-4 -9,-1 -8,-4 -5,3 -3,-3 z"
       label="Bas-Rhin"
       city="Strasbourg" />
    <path
       id="dep_54"
       d="m 727,156 -4,4 h -7 l -2,2 v 5 l 2,3 -1,2 -1,3 1,1 2,-1 1,-3 4,-1 6,-1 3,2 1,3 1,3 v 3 l 2,2 v 2 l -2,2 v 5 l 2,2 v 3 4 l 2,2 3,2 -1,2 4,4 -3,4 v 2 l 4,2 v 2 h -4 l -2,2 v 2 l 3,3 -3,7 -2,6 1,4 v 6 l 1,3 h 2 l 2,2 h -4 l -2,2 v 2 l 3,3 v 5 l 4,-1 h 5 v 6 h 2 l -2,2 v 2 l 3,1 3,3 12,-1 2,-4 h 6 l 2,-2 3,2 3,-1 h 5 l 4,-1 4,-3 2,2 v -5 l 3,-1 1,5 h 5 l 4,1 h 2 l 6,-2 3,-3 3,-3 5,-2 4,-1 -2,-2 h 4 1 l -5,-2 -6,-4 -5,-4 h -6 l -7,-4 h -5 v -2 l -8,-4 -10,-4 h -4 l -2,-5 -7,-9 h -7 l -3,-4 h -6 l 1,-6 -8,-4 1,-5 h 4 v -4 l 1,-3 -3,-3 3,-5 -2,-5 -2,-2 -5,-10 2,-3 v -5 h -5 l -7,-7 z"
       label="Meurthe-et-Moselle"
       city="Nancy" />
    <path
       id="dep_77"
       d="m 553,208 -2,1 -4,3 -3,-1 -6,2 -5,-3 -2,3 h -4 l -2,-1 -4,-2 -4,3 v -1 l -2,10 3,13 v 8 l -3,8 v 4 l -3,3 2,10 -1,2 -2,9 3,3 -8,6 v 7 l 2,3 4,2 1,7 -6,4 3,3 4,-3 h 10 4 l 1,-3 h 4 v 3 l 9,-5 4,-4 4,-5 -3,-3 3,-6 6,-3 14,1 3,-3 h 1 v -6 l 2,-7 3,-3 v -4 l 5,-3 v -2 h -6 l -1,-3 2,-3 -1,-5 -3,-2 1,-5 3,-2 -1,-2 1,-1 -6,-2 -2,-4 -3,-1 -10,-9 -1,-8 z"
       label="Seine-et-Marne"
       city="Melun" />
    <path
       id="dep_68"
       d="m 845,282 h -5 l -4,8 -4,8 1,6 -4,8 -6,5 v 14 l -4,4 v 1 l 1,2 6,1 6,5 2,2 -1,4 -2,4 1,4 5,-1 1,4 2,8 4,-1 -1,4 3,2 h 13 l 7,-5 1,-8 3,-5 -5,-5 -2,-6 3,-4 v -9 l 2,-4 v -8 l 3,-4 -4,-5 v -11 l -5,-2 -4,-9 h -7 l -3,-4 z"
       label="Haut-Rhin"
       city="Colmar" />
    <path
       id="dep_55"
       d="m 706,152 -3,5 -3,2 -3,-3 h -5 l -1,-1 -4,7 -1,2 4,6 -1,7 -4,3 v 2 l 2,4 -2,2 -5,2 1,4 2,1 -3,3 2,5 3,8 -4,4 6,-1 -3,9 -4,2 -2,6 2,1 -2,5 v 3 l 7,5 1,13 7,1 5,5 8,4 4,1 7,8 -1,1 7,-1 v -3 l 7,-1 v -3 h 2 v 2 l 5,-1 3,-3 h -1 v -5 l -4,-3 v -2 l 3,-2 h 4 l -2,-2 h -1 l -2,-3 v -6 l -1,-4 2,-6 3,-7 -3,-3 v -2 l 2,-2 h 4 v -2 l -4,-2 v -2 l 3,-4 -4,-4 1,-2 -3,-2 -2,-2 v -4 -3 l -2,-2 v -5 l 2,-2 v -2 l -2,-1 v -4 l -1,-3 -1,-3 -3,-2 -6,2 h -4 l -2,3 -1,2 -1,-2 1,-2 1,-3 -2,-3 v -4 h -2 l -1,-7 -3,-3 h -2 z"
       label="Meuse"
       city="Bar-le-Duc" />
    <path
       id="dep_57"
       d="m 766,160 h -5 l -4,4 -1,1 h -6 l -2,-2 h -1 v 6 l -2,2 5,10 2,2 2,5 -3,5 3,3 -1,3 v 4 h -4 v 5 l 7,4 v 6 h 5 l 3,4 h 7 l 7,9 2,5 h 5 l 9,4 8,4 v 2 h 5 l 7,4 h 6 l 6,4 5,4 5,2 6,-7 2,-7 -2,-3 -1,-3 5,-8 -10,-5 -6,4 -4,-2 2,-4 -4,-2 -5,-2 v -5 l 5,-1 2,-9 3,-3 2,5 4,2 7,1 3,4 h 4 l 4,-3 5,3 h 2 l 3,-2 v -6 l 3,-5 -3,-3 -7,-5 -3,-4 -8,1 -5,5 h -13 l -3,-2 a 14,14 0 0 0 -4,-5 h -1 c -2,0 -5,-2 -5,-2 l -5,2 v 4 l -6,1 -4,-7 -2,-1 v -5 l -5,-2 -1,-9 -3,-3 -8,-4 h -3 l -1,1 h -4 l -5,-4 z"
       label="Moselle"
       city="Metz" />
    <path
       id="dep_88"
       d="m 833,262 -4,1 -5,2 -3,4 -3,2 -6,2 h -2 l -4,-1 h -5 l -1,-5 -3,1 v 5 l -2,-2 -4,3 -4,1 h -5 l -3,1 -3,-2 -2,2 h -6 l -2,4 -12,1 -2,-3 -4,-1 v -2 l 2,-2 h -2 v -6 h -6 l -2,1 -3,3 -5,2 v -3 h -2 v 3 l -7,1 v 3 l -7,1 -2,3 3,3 5,1 5,6 h 5 l 1,5 5,1 1,3 -4,2 -2,10 10,5 v 7 l 4,-1 3,3 3,-2 -1,-2 1,-1 3,3 4,-3 1,-3 6,-1 2,1 v 4 l 5,4 2,-1 4,-2 h 7 l 6,6 h 2 l 2,-2 1,-2 3,-1 3,2 3,3 12,6 4,-4 v -14 l 6,-5 4,-8 -1,-6 4,-8 4,-9 -7,-2 -1,-10 2,-6 z"
       label="Vosges"
       city="Épinal" />
    <path
       id="dep_91"
       d="m 492,244 -3,2 -4,1 -1,4 -5,3 -1,4 3,4 -4,5 h -5 l 2,3 -2,3 -1,5 2,1 v 4 l 1,2 1,9 11,-1 5,-4 4,3 9,1 2,2 v -7 l 8,-6 -3,-3 2,-9 1,-2 -2,-10 3,-3 v -4 l -4,-2 h -7 l -3,-2 -3,1 -6,-3 z"
       label="Esonne"
       city="Evry" />
    <path
       id="dep_78"
       d="m 450,211 -10,3 -2,2 2,3 v 2 l 3,1 -2,2 v 2 l 1,-1 3,4 1,4 3,3 -1,4 v 4 l 2,3 -2,4 2,6 6,4 v 4 h 5 l 1,8 3,4 6,1 1,-5 2,-3 -2,-3 h 5 l 4,-5 -3,-4 1,-4 5,-3 1,-4 4,-1 3,-2 v 1 -1 l -3,-3 -2,-6 3,-7 -1,-5 -7,-4 h -8 l -9,-6 -6,2 z"
       label="Yvelines"
       city="Versailles" />
    <path
       id="dep_95"
       d="m 457,195 -3,4 -2,8 -2,4 9,4 6,-2 9,6 h 8 l 7,4 1,5 h 1 l 6,-3 10,-1 5,-2 4,-3 1,-7 -2,-2 -8,-5 -8,-4 -4,2 -4,1 -3,-2 -6,-4 -4,4 -7,1 -10,-1 -2,-4 z"
       label="Val-D'oise"
       city="Pontoise" />
    <path
       id="dep_93"
       d="m 516,219 -4,3 -5,2 -10,1 1,1 h 1 v 1 2 h -1 v 2 h 5 l 1,2 1,4 1,-1 2,-1 h 2 l 3,2 2,2 1,1 h 2 v -5 l -3,-13 z"
       label="Seine-Saint-Denis"
       city="Bobigny" />
    <path
       id="dep_75"
       d="m 503,231 h -5 l -2,1 -1,1 h -1 l -2,2 v 1 1 l 3,1 4,2 h 2 1 l 2,-1 4,1 v -2 -1 h -3 l 1,1 h -1 -1 l 1,-1 -1,-4 z"
       label="Paris"
       city="Paris" />
    <path
       id="dep_92"
       d="m 497,225 -6,3 h -1 l -3,7 2,6 3,4 5,4 2,-1 -1,-2 1,-3 -1,-1 1,-2 -4,-2 -3,-1 v -1 -1 l 2,-2 h 1 l 1,-1 2,-1 v -2 h 1 v -2 -1 h -1 z"
       label="Hauts-de-Seine"
       city="Nanterre" />
    <path
       id="dep_94"
       d="m 508,235 -2,1 -1,1 -1,1 h 1 1 v -1 h 2 v 1 2 l -4,-1 -2,1 h -1 -2 l -1,2 1,1 -1,3 1,2 1,-1 4,2 h 7 l 4,2 3,-8 v -3 h -2 l -1,-1 -2,-2 -3,-2 z"
       label="Val-de-Marne"
       city="Créteil" />
    <path
       id="dep_25"
       d="m 812,361 -1,1 h -4 l -2,3 -3,1 v 4 l -7,1 -3,-3 -5,1 -5,4 -3,5 -3,1 -2,4 -4,1 -6,5 h -7 l -3,1 h -2 l -7,6 h -3 v 2 4 l 5,3 2,3 v 4 l -3,6 -1,3 10,4 6,-1 1,6 v 7 l 8,2 4,1 5,5 -1,4 -2,4 -7,2 2,4 1,2 -3,3 v 3 h 5 l 22,-21 -1,-17 8,-4 6,-3 5,-4 v -8 l 5,-2 12,-13 -2,-5 4,-1 4,-6 -2,-3 -9,2 v -1 l 8,-10 z"
       label="Doubs"
       city="Besançon" />
    <path
       id="dep_90"
       d="m 819,336 -3,2 -3,2 v 5 l 1,5 v 4 5 l -2,2 22,11 1,-2 5,-1 -2,-8 -1,-4 -5,1 -1,-4 2,-4 v -4 l -1,-2 -6,-5 -6,-1 z"
       label="Territoire de Belfort"
       city="Belfort" />
  </g>
</svg>
